<svg version="1.1" xmlns="http://www.w3.org/2000/svg" xmlns:xlink="http://www.w3.org/1999/xlink" width="21.00827" height="10.19076" viewBox="0,0,21.00827,10.19076"><g transform="translate(-233.06677,-193.7)"><g data-paper-data="{&quot;isPaintingLayer&quot;:true}" fill-rule="nonzero" stroke="#000000" stroke-linejoin="miter" stroke-miterlimit="10" stroke-dasharray="" stroke-dashoffset="0" style="mix-blend-mode: normal"><path d="M252.82504,195.42664l-1.52504,5.77337l-16.98323,-0.14036" fill="none" stroke-width="2.5" stroke-linecap="round"/><path d="M247.08673,196.6592l-12.6808,2.71731c0.02389,-0.25396 0.05293,-0.50658 0.08773,-0.7577c0.17254,-1.24516 0.37222,-2.48318 0.58857,-3.71695c3.89251,-0.0507 6.84518,-0.20652 7.42354,-0.20187c1.3601,0.01094 2.81909,0.20992 4.161,0.27685c0.01835,0.00092 0.03841,0.002 0.06016,0.00326z" fill="#5500ff" stroke-width="2" stroke-linecap="butt"/><path d="M250.95938,200.9h-16.63949c0.01749,-0.77091 0.07004,-1.53269 0.17376,-2.28119c0.17254,-1.24516 0.37222,-2.48318 0.58857,-3.71695c3.89252,-0.0507 6.84519,-0.20652 7.42355,-0.20187c1.3601,0.01094 2.81909,0.20992 4.161,0.27685c0.47563,0.02372 2.10368,0.16322 4.29262,0.32106z" fill="#5500ff" stroke-width="2" stroke-linecap="butt"/><path d="M250.44368,202.66021l-15.89938,-4.4013c0.16055,-1.12391 0.34242,-2.24222 0.53792,-3.35705c3.89252,-0.0507 6.84518,-0.20652 7.42355,-0.20187c1.3601,0.01094 2.81909,0.20992 4.161,0.27685c0.57853,0.02885 2.86211,0.229 5.78616,0.4251z" fill="#5500ff" stroke-width="2" stroke-linecap="butt"/><path d="" fill="#5500ff" stroke-width="2" stroke-linecap="butt"/><path d="" fill="#5500ff" stroke-width="2" stroke-linecap="butt"/><path d="" fill="#5500ff" stroke-width="2" stroke-linecap="butt"/></g></g></svg>